<svg width="24" height="24" viewBox="0 0 24 24" fill="none" xmlns="http://www.w3.org/2000/svg">
<g id="Group">
<path id="Vector" d="M12 24C18.6274 24 24 18.6274 24 12C24 5.37258 18.6274 0 12 0C5.37258 0 0 5.37258 0 12C0 18.6274 5.37258 24 12 24Z" fill="#F3BA2F"/>
<path id="Vector_2" d="M9.08749 10.8034L12.0005 7.89037L14.915 10.8049L16.61 9.10987L12.0005 4.50037L7.39249 9.10837L9.08749 10.8034ZM4.50049 12.0004L6.19549 10.3054L7.89049 12.0004L6.19549 13.6954L4.50049 12.0004ZM9.08749 13.1974L12.0005 16.1104L14.915 13.1959L16.61 14.8901L12.0005 19.5004L7.39249 14.8924L7.39024 14.8901L9.08749 13.1974ZM16.1105 12.0004L17.8055 10.3054L19.5005 12.0004L17.8055 13.6954L16.1105 12.0004ZM13.7195 11.9989H13.721V12.0004L12.0005 13.7209L10.2822 12.0034L10.2792 12.0004L10.2822 11.9981L10.583 11.6966L10.7292 11.5504L12.0005 10.2799L13.7202 11.9996L13.7195 11.9989Z" fill="white"/>
</g>
</svg>
