<svg width="24" height="24" viewBox="0 0 24 24" fill="none" xmlns="http://www.w3.org/2000/svg">
<g id="Ico/Crypto" clip-path="url(#clip0_54941_40792)">
<path id="Vector" d="M24 12C24 14.3734 23.2962 16.6935 21.9776 18.6668C20.6591 20.6402 18.7849 22.1783 16.5922 23.0866C14.3995 23.9948 11.9867 24.2324 9.65892 23.7694C7.33115 23.3064 5.19295 22.1635 3.51472 20.4853C1.83649 18.8071 0.693605 16.6689 0.230582 14.3411C-0.232441 12.0133 0.00519936 9.60051 0.913451 7.4078C1.8217 5.21509 3.35977 3.34094 5.33316 2.02236C7.30655 0.703788 9.62663 0 12 0C15.1826 0 18.2348 1.26428 20.4853 3.51472C22.7357 5.76516 24 8.8174 24 12Z" fill="#F7931A"/>
<path id="Vector_2" fill-rule="evenodd" clip-rule="evenodd" d="M8.52848 5.48005L11.2863 6.2186L11.9027 3.92114L13.2816 4.29532L12.6892 6.49787L13.8139 6.80005L14.4074 4.57351L15.8103 4.94878L15.2059 7.18732C15.2059 7.18732 17.4968 7.6946 18.0358 9.55787C18.5747 11.4211 16.851 12.3997 16.3187 12.4368C16.3187 12.4368 18.3259 13.5375 17.6365 15.703C16.947 17.8684 14.8307 18.2557 12.6041 17.7593L11.9998 20.0808L10.5968 19.7055L11.2132 17.4201L10.1005 17.1168L9.48412 19.4186L8.09212 19.0444L8.70957 16.7535L5.87866 15.9899L6.59212 14.4059C6.59212 14.4059 7.39066 14.6241 7.69284 14.6961C7.99503 14.7681 8.18921 14.4539 8.2743 14.1397C8.35939 13.8255 9.64121 8.6186 9.7623 8.18987C9.88339 7.76114 9.8343 7.42623 9.32594 7.29423C8.81757 7.16223 8.12594 6.95605 8.12594 6.95605L8.52848 5.48005ZM11.3103 12.3757L10.5467 15.4117C10.5467 15.4117 14.3332 16.7786 14.8176 14.8553C15.3019 12.9321 11.3103 12.3757 11.3103 12.3757ZM11.6616 10.9357L12.411 8.15387C12.411 8.15387 15.6532 8.73423 15.2539 10.2822C14.8547 11.8302 12.9434 11.2368 11.6616 10.9357Z" fill="white"/>
</g>
<defs>
<clipPath id="clip0_54941_40792">
<rect width="24" height="24" fill="white"/>
</clipPath>
</defs>
</svg>
