<svg width="21" height="22" viewBox="0 0 21 22" fill="none" xmlns="http://www.w3.org/2000/svg">
<g id="elements">
<path id="Vector 7267" d="M6.5 14.9966L3.5 0.996637L0 0.996582" stroke="white" stroke-width="1.5" stroke-linejoin="round"/>
<path id="Vector" d="M7.5 14.9966L7.49999 15.7466H7.5L7.5 14.9966ZM20 5.49658H20.75C20.75 5.29767 20.671 5.1069 20.5303 4.96625C20.3897 4.8256 20.1989 4.74658 20 4.74658L20 5.49658ZM4.5 17.9966H3.75V18.7466H4.5L4.5 17.9966ZM13.7632 15.7466C16.2802 15.7466 18.0809 14.5996 19.21 12.691C20.3072 10.8361 20.75 8.3043 20.75 5.49658H19.25C19.25 8.18886 18.8182 10.4071 17.9189 11.9272C17.0515 13.3937 15.7338 14.2466 13.7632 14.2466V15.7466ZM4.5 18.7466L15.5 18.7466V17.2466L4.5 17.2466L4.5 18.7466ZM7.5 14.9966C7.50001 14.2466 7.49963 14.2466 7.49924 14.2466C7.4991 14.2466 7.49869 14.2466 7.4984 14.2466C7.49782 14.2466 7.49719 14.2466 7.49651 14.2466C7.49515 14.2466 7.49361 14.2466 7.49188 14.2467C7.48843 14.2467 7.48423 14.2467 7.47931 14.2468C7.46947 14.247 7.45675 14.2473 7.44133 14.2478C7.41051 14.2488 7.36878 14.2507 7.31767 14.2544C7.2157 14.2617 7.07492 14.2759 6.90796 14.3037C6.57759 14.3588 6.12563 14.4703 5.6646 14.7008C5.20062 14.9328 4.71383 15.2925 4.34471 15.8462C3.97246 16.4046 3.75 17.1153 3.75 17.9966H5.25C5.25 17.3778 5.40254 16.9636 5.59279 16.6782C5.78617 16.3882 6.04938 16.1854 6.3354 16.0424C6.62437 15.8979 6.92241 15.822 7.15454 15.7833C7.26883 15.7642 7.36243 15.755 7.42452 15.7506C7.45544 15.7484 7.47816 15.7474 7.49129 15.7469C7.49784 15.7467 7.50196 15.7466 7.50348 15.7466C7.50424 15.7466 7.50434 15.7466 7.50377 15.7466C7.50348 15.7466 7.50303 15.7466 7.5024 15.7466C7.50208 15.7466 7.50173 15.7466 7.50132 15.7466C7.50112 15.7466 7.50079 15.7466 7.50069 15.7466C7.50035 15.7466 7.49999 15.7466 7.5 14.9966ZM7.5 15.7466L10.6316 15.7466L10.6316 14.2466L7.5 14.2466L7.5 15.7466ZM10.6316 15.7466H13.7632V14.2466H10.6316L10.6316 15.7466ZM20 4.74658L18.125 4.74659L18.125 6.24659L20 6.24658L20 4.74658ZM6.99999 4.74658L4.49999 4.74662L4.50001 6.24662L7.00001 6.24658L6.99999 4.74658Z" fill="white"/>
<circle id="Ellipse 1973" cx="8.5" cy="19.4966" r="1.5" stroke="white" stroke-width="1.5"/>
<circle id="Ellipse 1974" cx="15.5" cy="19.4966" r="1.5" stroke="white" stroke-width="1.5"/>
<path id="Vector_2" d="M8.5 5.49658L16.5 5.49658M12.5 9.49658L12.5 1.49658" stroke="white" stroke-width="1.5" stroke-linejoin="round"/>
</g>
</svg>
