<svg width="24" height="24" viewBox="0 0 24 24" fill="none"
  xmlns="http://www.w3.org/2000/svg">
  <g id="Group">
    <g id="Group_2">
      <path id="Path" fill-rule="evenodd" clip-rule="evenodd" d="M19 20.9966H16C14.895 20.9966 14 20.1016 14 18.9966V13.9966C14 12.8916 14.895 11.9966 16 11.9966H19C20.105 11.9966 21 12.8916 21 13.9966V18.9966C21 20.1016 20.105 20.9966 19 20.9966Z" stroke="#061461" stroke-width="1.5" stroke-linecap="round" stroke-linejoin="round"/>
      <path id="Path_2" fill-rule="evenodd" clip-rule="evenodd" d="M19 8.99658H16C14.895 8.99658 14 8.10158 14 6.99658V4.99658C14 3.89158 14.895 2.99658 16 2.99658H19C20.105 2.99658 21 3.89158 21 4.99658V6.99658C21 8.10158 20.105 8.99658 19 8.99658Z" stroke="#061461" stroke-width="1.5" stroke-linecap="round" stroke-linejoin="round"/>
      <path id="Path_3" fill-rule="evenodd" clip-rule="evenodd" d="M5 2.99658H8C9.105 2.99658 10 3.89158 10 4.99658V9.99658C10 11.1016 9.105 11.9966 8 11.9966H5C3.895 11.9966 3 11.1016 3 9.99658V4.99658C3 3.89158 3.895 2.99658 5 2.99658Z" stroke="#061461" stroke-width="1.5" stroke-linecap="round" stroke-linejoin="round"/>
      <path id="Path_4" fill-rule="evenodd" clip-rule="evenodd" d="M5 14.9966H8C9.105 14.9966 10 15.8916 10 16.9966V18.9966C10 20.1016 9.105 20.9966 8 20.9966H5C3.895 20.9966 3 20.1016 3 18.9966V16.9966C3 15.8916 3.895 14.9966 5 14.9966Z" stroke="#061461" stroke-width="1.5" stroke-linecap="round" stroke-linejoin="round"/>
    </g>
  </g>
</svg>
