<svg width="20" height="22" viewBox="0 0 20 22" fill="none" xmlns="http://www.w3.org/2000/svg">
<g id="elements">
<path id="Vector" d="M15 0.996582V2.99658M10 0.996582V2.99658M5 0.996582L5 2.99658" stroke="white" stroke-width="1.5" stroke-linecap="round" stroke-linejoin="round"/>
<path id="Vector 7181" d="M1.5 14.9966L1.5 7.99658C1.5 5.16815 1.5 3.75394 2.37868 2.87526C3.25736 1.99658 4.67157 1.99658 7.5 1.99658L12.5 1.99658C15.3284 1.99658 16.7426 1.99658 17.6213 2.87526C18.5 3.75394 18.5 5.16815 18.5 7.99658L18.5 10.9966C18.5 15.7106 18.5 18.0676 17.0355 19.5321C15.5711 20.9966 13.214 20.9966 8.5 20.9966H7.5C4.67157 20.9966 3.25736 20.9966 2.37868 20.1179C1.5 19.2392 1.5 17.825 1.5 14.9966Z" stroke="white" stroke-width="1.5"/>
<path id="Vector_2" d="M6 13.9966H10M6 8.99658L14 8.99658" stroke="white" stroke-width="1.5" stroke-linecap="round"/>
<path id="Vector_3" d="M18.5 13.4966C18.5 14.8773 17.3807 15.9966 16 15.9966C15.5007 15.9966 14.912 15.9091 14.4265 16.0392C13.9951 16.1548 13.6582 16.4917 13.5426 16.9231C13.4125 17.4086 13.5 17.9972 13.5 18.4966C13.5 19.8773 12.3807 20.9966 11 20.9966" stroke="white" stroke-width="1.5" stroke-linecap="round" stroke-linejoin="round"/>
</g>
</svg>
