<svg width="24" height="24" viewBox="0 0 24 24" fill="none" xmlns="http://www.w3.org/2000/svg">
<g id="Group">
<path id="Vector" d="M12 24C18.6274 24 24 18.6274 24 12C24 5.37258 18.6274 0 12 0C5.37258 0 0 5.37258 0 12C0 18.6274 5.37258 24 12 24Z" fill="#6CDE07"/>
<path id="Vector_2" fill-rule="evenodd" clip-rule="evenodd" d="M16.8752 14.3656C16.8752 16.2931 15.3107 17.5726 13.0007 17.7654V19.5001H11.4182V17.7481C9.85576 17.5719 8.3712 16.9718 7.12524 16.0126L8.28924 14.4181C9.32649 15.2244 10.3082 15.7501 11.491 15.9256V12.4906C8.83524 11.8246 7.59849 10.8609 7.59849 8.88087C7.59849 6.98862 9.14424 5.69187 11.4182 5.51637V4.50012H13.0007V5.55162C14.2376 5.689 15.4168 6.14827 16.4207 6.88362L15.4015 8.53062C14.6012 7.95237 13.783 7.58412 12.928 7.40937V10.7386C15.6932 11.4046 16.8752 12.4734 16.8752 14.3656ZM11.4902 10.3704V7.28637C10.345 7.37412 9.74499 7.98762 9.74499 8.75862C9.74499 9.49362 10.09 9.96762 11.491 10.3711L11.4902 10.3704ZM14.7287 14.4879C14.7287 13.7004 14.3462 13.2271 12.928 12.8236V15.9961C14.074 15.9076 14.7287 15.3294 14.7287 14.4886V14.4879Z" fill="white"/>
</g>
</svg>
