<svg width="32" height="32" viewBox="0 0 32 32" fill="none" xmlns="http://www.w3.org/2000/svg">
<path id="Vector" d="M31.9964 31.2221V31.3821C28.9359 31.3917 25.8755 31.4141 22.8151 31.3917C22.4881 31.3509 22.1883 31.1888 21.9752 30.9373C20.0555 28.7264 18.1645 26.4915 16.264 24.2646L11.1191 18.2302C10.8535 18.4493 10.6263 18.6285 10.4087 18.8205C7.17396 21.6724 3.93918 24.5243 0.704397 27.3762C0.479807 27.5504 0.244728 27.7107 0.000488281 27.8561L0.000488281 4.49913L9.27929 12.5941C9.53046 12.3733 9.73203 12.2053 9.91921 12.0262C14.0125 8.17812 18.1075 4.33275 22.204 0.490046C22.4408 0.269274 22.7703 0.0101077 23.0583 0.0101077C26.0387 -0.0138892 29.0191 0.0101077 31.9996 0.0277054V0.187685C31.8458 0.286537 31.6974 0.393335 31.5548 0.507643C27.0061 4.53059 22.4605 8.55674 17.9182 12.5861C16.5679 13.7843 15.2241 14.9858 13.8467 16.216C14.0819 16.4256 14.2514 16.5904 14.4338 16.7407C16.8538 18.7458 19.2748 20.7488 21.6969 22.7496C25.1279 25.5769 28.5611 28.4011 31.9964 31.2221ZM1.01636 6.75004L0.856378 6.81083L4.5615 17.5054L7.6587 14.2371L1.01636 6.75004Z" fill="white"/>
</svg>
