<svg width="109" height="30" viewBox="0 0 109 30" fill="none" xmlns="http://www.w3.org/2000/svg">
<g id="logo-largo 1" clip-path="url(#clip0_55285_981)">
<g id="Capa 2">
<g id="Capa 1">
<path id="Vector" d="M28.0327 28.7974V28.9371C25.3619 28.9454 22.691 28.965 20.0201 28.9454C19.7347 28.9099 19.4731 28.7684 19.2871 28.5489C17.6117 26.6192 15.9615 24.6686 14.3028 22.7249L9.81274 17.4581C9.58097 17.6494 9.38272 17.8058 9.19284 17.9733C6.36979 20.4625 3.54674 22.9516 0.723689 25.4407C0.527684 25.5928 0.322527 25.7327 0.109375 25.8596L0.109375 5.4737L8.20715 12.539C8.42634 12.3463 8.60226 12.1997 8.76561 12.0433C12.3379 8.68472 15.9117 5.32849 19.4868 1.97459C19.6934 1.7819 19.981 1.5557 20.2323 1.5557C22.8334 1.53475 25.4345 1.5557 28.0355 1.57106V1.71069C27.9014 1.79696 27.7718 1.89018 27.6474 1.98995C23.6776 5.50117 19.7106 9.01518 15.7464 12.532C14.5681 13.5778 13.3953 14.6264 12.1932 15.7002C12.3984 15.8831 12.5464 16.0269 12.7056 16.1582C14.8175 17.9082 16.9304 19.6563 19.0442 21.4027C22.0385 23.8704 25.0347 26.3353 28.0327 28.7974ZM0.995941 7.43829L0.856324 7.49135L4.08985 16.8256L6.79283 13.973L0.995941 7.43829Z" fill="white"/>
<path id="Vector_2" d="M45.7131 20.1495C45.2608 19.4551 44.74 18.7262 44.1508 17.9629C43.5616 17.1996 42.9413 16.4619 42.2897 15.7498C41.6382 15.0386 40.9657 14.3619 40.2723 13.7196C39.629 13.1169 38.9441 12.5603 38.2227 12.0538V20.1523H34.9375V2.10938H38.2227V9.55442C38.7951 8.98194 39.3936 8.37037 40.0181 7.71969C40.6427 7.06902 41.2631 6.4095 41.8792 5.74114C42.4954 5.07371 43.0809 4.42723 43.6356 3.80169C44.1904 3.17615 44.6939 2.61204 45.1463 2.10938H49.0709C48.4966 2.76936 47.8893 3.45494 47.2489 4.16612C46.6085 4.8773 45.9491 5.59313 45.2705 6.31362C44.5939 7.03411 43.9125 7.75181 43.2265 8.46671C42.5406 9.18161 41.8681 9.85649 41.2091 10.4913C41.9901 11.0914 42.7333 11.7392 43.4346 12.4308C44.1904 13.1699 44.9322 13.9611 45.6601 14.8045C46.3879 15.6479 47.086 16.5243 47.7543 17.4337C48.4217 18.3441 49.0332 19.2508 49.5889 20.1537L45.7131 20.1495Z" fill="white"/>
<path id="Vector_3" d="M63.4205 13.3202C63.4326 14.3203 63.2745 15.3152 62.9528 16.2622C62.6685 17.0995 62.2168 17.87 61.6251 18.527C61.0472 19.155 60.3417 19.652 59.5559 19.9848C58.7115 20.3388 57.8035 20.5161 56.8879 20.5056C55.9772 20.5167 55.074 20.3394 54.2351 19.9848C53.4549 19.6493 52.7545 19.1525 52.18 18.527C51.5863 17.869 51.1302 17.099 50.8383 16.2622C50.5057 15.3175 50.3413 14.3218 50.3524 13.3202C50.3383 12.3222 50.5009 11.3294 50.8327 10.388C51.1281 9.55426 51.5887 8.7887 52.187 8.13719C52.7676 7.51407 53.4751 7.0227 54.2617 6.69621C55.0945 6.35031 55.9889 6.17739 56.8907 6.18796C57.7963 6.17839 58.6947 6.35124 59.5322 6.69621C60.3195 7.02035 61.0259 7.51373 61.6013 8.14137C62.1918 8.79617 62.6473 9.56106 62.9416 10.3922C63.2724 11.3324 63.4345 12.3236 63.4205 13.3202ZM60.194 13.3202C60.194 11.9677 59.9031 10.8972 59.3214 10.1088C58.7396 9.32031 57.9285 8.92563 56.8879 8.9247C55.8463 8.9247 55.0351 9.31938 54.4543 10.1088C53.8735 10.8981 53.5827 11.9686 53.5817 13.3202C53.5817 14.6914 53.8726 15.7763 54.4543 16.575C55.0361 17.3737 55.8473 17.7726 56.8879 17.7716C57.9294 17.7716 58.7406 17.3728 59.3214 16.575C59.9022 15.7773 60.1931 14.6923 60.194 13.3202Z" fill="white"/>
<path id="Vector_4" d="M78.2138 19.7216C77.4403 19.9454 76.653 20.1189 75.8571 20.241C74.872 20.4006 73.8756 20.4791 72.8777 20.4756C71.892 20.4915 70.912 20.3239 69.9876 19.9813C69.169 19.672 68.4276 19.1879 67.8152 18.5627C67.2023 17.9241 66.7322 17.1626 66.4358 16.3286C66.1021 15.3785 65.939 14.3768 65.9541 13.3699C65.9416 12.3778 66.0776 11.3895 66.3576 10.4376C66.5973 9.61558 67 8.85013 67.5415 8.18682C68.0558 7.56584 68.7059 7.07139 69.4417 6.74165C70.2546 6.39006 71.1335 6.21721 72.019 6.2348C72.6087 6.2248 73.1965 6.30341 73.7628 6.46798C74.2111 6.60281 74.6466 6.7771 75.0641 6.9888V0.458318L78.2138 -0.0625V19.7216ZM69.182 13.2987C69.182 14.6866 69.5115 15.7752 70.1705 16.5646C70.8295 17.354 71.7403 17.7491 72.9028 17.75C73.3333 17.7537 73.7636 17.7318 74.1915 17.6844C74.4845 17.6525 74.7757 17.6059 75.0641 17.5448V9.72554C74.7195 9.50178 74.3479 9.32256 73.9583 9.19215C73.4858 9.02488 72.9879 8.94079 72.4867 8.94361C71.3419 8.94361 70.5042 9.33411 69.9736 10.1151C69.4431 10.8961 69.1792 11.955 69.182 13.2917V13.2987Z" fill="white"/>
<path id="Vector_5" d="M81.4471 13.3994C81.4254 12.3256 81.6063 11.2574 81.9804 10.2507C82.2955 9.4115 82.7782 8.6452 83.3989 7.9985C83.9728 7.40923 84.6645 6.94771 85.4289 6.64409C86.1734 6.34338 86.9687 6.18838 87.7717 6.1875C89.6453 6.1875 91.1071 6.76882 92.1571 7.93147C93.207 9.09412 93.7319 10.8302 93.7319 13.1397C93.7319 13.3128 93.7319 13.5083 93.7194 13.7247C93.7068 13.9411 93.697 14.1436 93.6803 14.3112H84.7001C84.7867 15.4049 85.173 16.2511 85.8589 16.8496C86.5449 17.4482 87.5381 17.7474 88.8384 17.7474C89.5419 17.7531 90.244 17.6834 90.9326 17.5394C91.4438 17.4372 91.9447 17.289 92.4293 17.0968L92.8482 19.6729C92.6177 19.7848 92.3786 19.8782 92.1333 19.9522C91.7911 20.0575 91.4434 20.1442 91.0918 20.2119C90.7009 20.2901 90.282 20.3553 89.8352 20.4074C89.3773 20.4603 88.9167 20.4865 88.4558 20.4856C87.2579 20.4856 86.2168 20.3078 85.3326 19.9522C84.4995 19.6319 83.7513 19.124 83.1462 18.4679C82.5664 17.8228 82.1313 17.061 81.8701 16.2339C81.5808 15.3172 81.438 14.3606 81.4471 13.3994ZM90.5766 11.9947C90.579 11.5755 90.5178 11.1584 90.3951 10.7576C90.2849 10.3878 90.1038 10.043 89.8618 9.74247C89.6279 9.45725 89.335 9.22619 89.0031 9.06527C88.6236 8.89201 88.2097 8.80749 87.7926 8.81812C87.3512 8.80973 86.9141 8.9054 86.5165 9.09738C86.1627 9.27047 85.8482 9.51425 85.5923 9.81368C85.3374 10.1138 85.1392 10.4578 85.0073 10.8288C84.871 11.2077 84.7773 11.6006 84.728 12.0003L90.5766 11.9947Z" fill="white"/>
<path id="Vector_6" d="M101.961 10.6836L104.856 6.51562H108.16L103.591 13.0363C104.546 14.2353 105.461 15.4454 106.337 16.6667C107.135 17.7689 107.858 18.924 108.5 20.1239H105.069C104.886 19.7615 104.682 19.4099 104.458 19.0711C104.206 18.6885 103.939 18.2906 103.655 17.8773C103.371 17.464 103.074 17.0539 102.764 16.6472C102.452 16.2422 102.151 15.8601 101.859 15.5008C101.218 16.2486 100.62 17.0323 100.068 17.848C99.4844 18.7053 99.0009 19.4639 98.6174 20.1239H95.4062C95.6904 19.5556 96.0069 19.0041 96.3542 18.4721C96.7266 17.894 97.1282 17.3029 97.5591 16.6988C97.9901 16.0947 98.4317 15.4896 98.8841 14.8836C99.3392 14.2804 99.7902 13.7066 100.237 13.162L95.6115 6.51842H99.0726L101.961 10.6836Z" fill="white"/>
<path id="Vector_7" d="M96.7164 22.4531C97.5643 22.4531 98.2159 22.6076 98.671 22.9167C99.1262 23.2257 99.3519 23.7079 99.3482 24.3633C99.3564 24.6664 99.2948 24.9674 99.1681 25.2429C99.0484 25.4847 98.8668 25.6905 98.6417 25.8391C98.3864 26.0044 98.1022 26.12 97.804 26.1798C97.4302 26.2572 97.0492 26.2941 96.6675 26.2901H96.13V28.3427H95.0703V22.5969C95.3402 22.5379 95.6142 22.4997 95.8899 22.4824C96.1905 22.4629 96.466 22.4531 96.7164 22.4531ZM96.7932 23.3705C96.5237 23.3705 96.3017 23.3789 96.1286 23.3956V25.3812H96.641C97.152 25.3812 97.5448 25.3095 97.8194 25.1661C98.0986 25.0265 98.2382 24.7472 98.2382 24.3549C98.2438 24.1885 98.2063 24.0235 98.1293 23.876C98.0581 23.749 97.9533 23.6441 97.8263 23.573C97.6832 23.4951 97.5279 23.4422 97.367 23.4166C97.1777 23.3865 96.9862 23.3729 96.7946 23.3761L96.7932 23.3705Z" fill="white"/>
<path id="Vector_8" d="M101.581 23.8523C101.869 23.8452 102.157 23.8882 102.431 23.9794C102.644 24.0491 102.836 24.1704 102.99 24.3326C103.13 24.4901 103.23 24.6787 103.283 24.8828C103.345 25.115 103.375 25.3546 103.372 25.5949V28.2604C103.214 28.2939 102.978 28.3358 102.661 28.3833C102.306 28.4334 101.947 28.4572 101.588 28.4545C101.345 28.4566 101.102 28.4313 100.865 28.3791C100.664 28.3355 100.474 28.2524 100.306 28.1348C100.151 28.0218 100.026 27.8715 99.9445 27.6977C99.8508 27.489 99.8059 27.2617 99.8133 27.0331C99.8058 26.8106 99.8568 26.5901 99.9613 26.3936C100.058 26.2231 100.195 26.0792 100.361 25.9747C100.539 25.8602 100.738 25.7802 100.946 25.7387C101.175 25.6902 101.409 25.6663 101.644 25.6675C101.762 25.6679 101.88 25.6749 101.997 25.6884C102.13 25.7043 102.262 25.728 102.392 25.7597V25.5921C102.393 25.4781 102.378 25.3646 102.35 25.2542C102.323 25.1478 102.271 25.0494 102.198 24.9675C102.126 24.8856 102.034 24.8225 101.931 24.7836C101.792 24.7349 101.646 24.7122 101.498 24.7166C101.281 24.7152 101.065 24.732 100.851 24.7669C100.688 24.7921 100.528 24.8314 100.372 24.8842L100.246 24.0604C100.429 24.0004 100.615 23.9537 100.805 23.9207C101.061 23.8752 101.321 23.8523 101.581 23.8523ZM101.666 27.6461C101.905 27.6518 102.145 27.635 102.381 27.5958V26.4676C102.301 26.4458 102.219 26.429 102.137 26.4173C102.02 26.3998 101.901 26.3914 101.783 26.3922C101.669 26.3923 101.555 26.4007 101.443 26.4173C101.335 26.4322 101.23 26.4632 101.131 26.5095C101.042 26.552 100.965 26.6175 100.909 26.6994C100.849 26.7903 100.82 26.8978 100.824 27.0066C100.814 27.1026 100.829 27.1997 100.869 27.2877C100.909 27.3756 100.972 27.4512 101.052 27.5064C101.24 27.6081 101.452 27.6563 101.666 27.6461Z" fill="white"/>
<path id="Vector_9" d="M108.116 23.9688C107.704 25.5202 107.176 27.0385 106.537 28.5109C106.439 28.7357 106.324 28.9524 106.192 29.1588C106.083 29.3269 105.95 29.4772 105.795 29.6042C105.652 29.7216 105.486 29.8089 105.308 29.8611C104.951 29.9563 104.577 29.9663 104.216 29.8904C104.096 29.8676 103.979 29.831 103.867 29.7815L104.053 28.9647C104.244 29.0418 104.447 29.0821 104.653 29.0834C104.876 29.0961 105.096 29.0288 105.273 28.8935C105.448 28.7313 105.582 28.5311 105.667 28.3084C105.346 27.6922 105.037 27.0197 104.741 26.2908C104.436 25.5317 104.172 24.7566 103.951 23.9688H105.037C105.093 24.2033 105.162 24.4584 105.244 24.7339C105.325 25.0132 105.414 25.2924 105.509 25.5717C105.604 25.851 105.706 26.1372 105.813 26.4179C105.921 26.6985 106.027 26.9596 106.135 27.1998C106.313 26.7018 106.481 26.1702 106.637 25.6052C106.794 25.0402 106.936 24.4952 107.064 23.9701L108.116 23.9688Z" fill="white"/>
</g>
</g>
</g>
<defs>
<clipPath id="clip0_55285_981">
<rect width="108.386" height="29.9966" fill="white"/>
</clipPath>
</defs>
</svg>
