<svg width="22" height="22" viewBox="0 0 22 22" fill="none" xmlns="http://www.w3.org/2000/svg">
<g id="elements">
<path id="Vector" d="M18.3333 12.9966L19.1565 13.7545C19.3357 13.9306 19.4253 14.0186 19.3938 14.0935C19.3622 14.1683 19.2355 14.1683 18.9821 14.1683H15.8777C14.2884 14.1683 13 15.4346 13 16.9966C13 17.3486 13.0655 17.6857 13.185 17.9966M15.6667 20.9966L14.8435 20.2387C14.6643 20.0626 14.5747 19.9745 14.6062 19.8997C14.6378 19.8249 14.7645 19.8249 15.0179 19.8249H18.1223C19.7116 19.8249 21 18.5586 21 16.9966C21 16.6445 20.9345 16.3075 20.815 15.9966" stroke="white" stroke-width="1.5" stroke-linecap="round" stroke-linejoin="round"/>
<path id="Vector 6689" d="M20.9913 10.4966C21 9.89584 21 9.73207 21 8.99658C21 5.22535 21 3.33973 19.8284 2.16815C18.6569 0.996582 16.7712 0.996582 13 0.996582H9C5.22876 0.996582 3.34315 0.996582 2.17157 2.16815C1 3.33973 1 5.22535 1 8.99658C1 12.7678 1 14.6534 2.17157 15.825C3.34315 16.9966 5.22876 16.9966 9 16.9966H10" stroke="white" stroke-width="1.5" stroke-linecap="round"/>
<path id="Vector_2" d="M17.5 8.99658H17.491" stroke="white" stroke-width="1.5" stroke-linecap="round" stroke-linejoin="round"/>
<path id="Vector_3" d="M4.5 8.99658H4.49102" stroke="white" stroke-width="1.5" stroke-linecap="round" stroke-linejoin="round"/>
<path id="Ellipse 1575" d="M13.5 8.99658C13.5 10.3773 12.3807 11.4966 11 11.4966C9.61929 11.4966 8.5 10.3773 8.5 8.99658C8.5 7.61587 9.61929 6.49658 11 6.49658C12.3807 6.49658 13.5 7.61587 13.5 8.99658Z" stroke="white" stroke-width="1.5"/>
</g>
</svg>
