<svg width="22" height="22" viewBox="0 0 22 22" fill="none" xmlns="http://www.w3.org/2000/svg">
<g id="elements">
<path id="Vector 6689" d="M17 4.99658C18.3001 5.12528 19.1752 5.41614 19.8284 6.07349C21 7.25255 21 9.1502 21 12.9455C21 16.7408 21 18.6385 19.8284 19.8175C18.6569 20.9966 16.7712 20.9966 13 20.9966H9C5.22876 20.9966 3.34315 20.9966 2.17157 19.8175C1 18.6385 1 16.7408 1 12.9455C1 9.1502 1 7.25255 2.17157 6.07349C2.82475 5.41614 3.69989 5.12528 5 4.99658" stroke="white" stroke-width="1.5" stroke-linecap="round"/>
<path id="Vector" d="M8.5 4.49658C8.99153 5.00228 10.2998 6.99658 11 6.99658M13.5 4.49658C13.0085 5.00228 11.7002 6.99658 11 6.99658M11 6.99658V0.996582" stroke="white" stroke-width="1.5" stroke-linecap="round" stroke-linejoin="round"/>
<path id="Vector_2" d="M17.5078 12.9966H17.4988" stroke="white" stroke-width="1.5" stroke-linecap="round" stroke-linejoin="round"/>
<path id="Vector_3" d="M4.50781 12.9966H4.49883" stroke="white" stroke-width="1.5" stroke-linecap="round" stroke-linejoin="round"/>
<path id="Ellipse 1574" d="M13.5 12.9966C13.5 14.3773 12.3807 15.4966 11 15.4966C9.61929 15.4966 8.5 14.3773 8.5 12.9966C8.5 11.6159 9.61929 10.4966 11 10.4966C12.3807 10.4966 13.5 11.6159 13.5 12.9966Z" stroke="white" stroke-width="1.5"/>
</g>
</svg>
