<svg width="24" height="24" viewBox="0 0 24 24" fill="none" xmlns="http://www.w3.org/2000/svg">
<g id="Group">
<path id="Vector" d="M12 24C18.6274 24 24 18.6274 24 12C24 5.37258 18.6274 0 12 0C5.37258 0 0 5.37258 0 12C0 18.6274 5.37258 24 12 24Z" fill="#26A17B"/>
<path id="Vector_2" fill-rule="evenodd" clip-rule="evenodd" d="M13.4416 13.0376V13.0361C13.3591 13.0421 12.9338 13.0676 11.9851 13.0676C11.2276 13.0676 10.6943 13.0451 10.5068 13.0361V13.0384C7.59085 12.9101 5.41435 12.4024 5.41435 11.7949C5.41435 11.1881 7.59085 10.6804 10.5068 10.5499V12.5329C10.6973 12.5464 11.2433 12.5786 11.9978 12.5786C12.9031 12.5786 13.3568 12.5411 13.4416 12.5336V10.5514C16.3516 10.6811 18.5228 11.1889 18.5228 11.7949C18.5228 12.4024 16.3516 12.9086 13.4416 13.0376ZM13.4416 10.3451V8.57062H17.5021V5.86462H6.44635V8.57062H10.5068V10.3444C7.20685 10.4959 4.7251 11.1499 4.7251 11.9329C4.7251 12.7159 7.20685 13.3691 10.5068 13.5214V19.2079H13.4416V13.5199C16.7363 13.3684 19.2121 12.7151 19.2121 11.9329C19.2121 11.1506 16.7363 10.4974 13.4416 10.3451Z" fill="white"/>
</g>
</svg>
