<svg width="22" height="22" viewBox="0 0 22 22" fill="none"
  xmlns="http://www.w3.org/2000/svg">
  <g id="elements">
    <path id="Ellipse 1574" d="M15 12.9966C15 13.825 15.6716 14.4966 16.5 14.4966C17.3284 14.4966 18 13.825 18 12.9966C18 12.1682 17.3284 11.4966 16.5 11.4966C15.6716 11.4966 15 12.1682 15 12.9966Z" stroke="#061461" stroke-width="1.5"/>
    <path id="Ellipse 1575" d="M17.9 6.99658C17.9656 6.67347 18 6.33905 18 5.99658C18 3.23516 15.7614 0.996582 13 0.996582C10.2386 0.996582 8 3.23516 8 5.99658C8 6.33905 8.03443 6.67347 8.10002 6.99658" stroke="#061461" stroke-width="1.5"/>
    <path id="Vector" d="M6 6.98982H15C17.8284 6.98982 19.2426 6.98982 20.1213 7.86892C21 8.74803 21 10.1629 21 12.9927V14.9937C21 17.8235 21 19.2384 20.1213 20.1175C19.2426 20.9966 17.8284 20.9966 15 20.9966H9C5.22876 20.9966 3.34315 20.9966 2.17157 19.8244C1 18.6523 1 16.7658 1 12.9927V10.9918C1 7.21869 1 5.33216 2.17157 4.16003C3.11466 3.21648 4.52043 3.03247 7 2.99658H9" stroke="#061461" stroke-width="1.5" stroke-linecap="round"/>
  </g>
</svg>
