<svg width="24" height="24" viewBox="0 0 24 24" fill="none" xmlns="http://www.w3.org/2000/svg">
<g id="Group">
<path id="Vector" d="M12 24C18.6274 24 24 18.6274 24 12C24 5.37258 18.6274 0 12 0C5.37258 0 0 5.37258 0 12C0 18.6274 5.37258 24 12 24Z" fill="#23292F"/>
<path id="Vector_2" d="M17.3027 6.00049H19.4702L14.959 10.4682C14.1703 11.2453 13.1075 11.6809 12.0002 11.6809C10.893 11.6809 9.83022 11.2453 9.0415 10.4682L4.52649 6.00049H6.69774L10.1252 9.39274C10.6244 9.88538 11.2974 10.1616 11.9987 10.1616C12.7 10.1616 13.3731 9.88538 13.8722 9.39274L17.3027 6.00049ZM6.67149 18.4227H4.50024L9.0415 13.928C9.83022 13.1509 10.893 12.7153 12.0002 12.7153C13.1075 12.7153 14.1703 13.1509 14.959 13.928L19.5002 18.422H17.329L13.8752 15.0005C13.3761 14.5078 12.703 14.2316 12.0017 14.2316C11.3004 14.2316 10.6274 14.5078 10.1282 15.0005L6.67074 18.4227H6.67149Z" fill="white"/>
</g>
</svg>
